# Tiled2Unity generated file. Do not modify by hand.
# Wavefront file for 'Platformer1_mesh_0001.obj'

# Vertices (Count = 232)
v -1792 -1568 0
v -1824 -1568 0
v -1824 -1536 0
v -1792 -1536 0
v -1824 -1568 0
v -1856 -1568 0
v -1856 -1536 0
v -1824 -1536 0
v -1856 -1568 0
v -1888 -1568 0
v -1888 -1536 0
v -1856 -1536 0
v -1888 -1568 0
v -1920 -1568 0
v -1920 -1536 0
v -1888 -1536 0
v -1920 -1568 0
v -1952 -1568 0
v -1952 -1536 0
v -1920 -1536 0
v -1952 -1568 0
v -1984 -1568 0
v -1984 -1536 0
v -1952 -1536 0
v -1792 -1600 0
v -1824 -1600 0
v -1824 -1568 0
v -1792 -1568 0
v -1824 -1600 0
v -1856 -1600 0
v -1856 -1568 0
v -1824 -1568 0
v -1856 -1600 0
v -1888 -1600 0
v -1888 -1568 0
v -1856 -1568 0
v -1888 -1600 0
v -1920 -1600 0
v -1920 -1568 0
v -1888 -1568 0
v -1920 -1600 0
v -1952 -1600 0
v -1952 -1568 0
v -1920 -1568 0
v -1952 -1600 0
v -1984 -1600 0
v -1984 -1568 0
v -1952 -1568 0
v -1472 -1632 0
v -1504 -1632 0
v -1504 -1600 0
v -1472 -1600 0
v -1504 -1632 0
v -1536 -1632 0
v -1536 -1600 0
v -1504 -1600 0
v -1536 -1632 0
v -1568 -1632 0
v -1568 -1600 0
v -1536 -1600 0
v -1568 -1632 0
v -1600 -1632 0
v -1600 -1600 0
v -1568 -1600 0
v -1600 -1632 0
v -1632 -1632 0
v -1632 -1600 0
v -1600 -1600 0
v -1632 -1632 0
v -1664 -1632 0
v -1664 -1600 0
v -1632 -1600 0
v -1664 -1632 0
v -1696 -1632 0
v -1696 -1600 0
v -1664 -1600 0
v -1472 -1664 0
v -1504 -1664 0
v -1504 -1632 0
v -1472 -1632 0
v -1504 -1664 0
v -1536 -1664 0
v -1536 -1632 0
v -1504 -1632 0
v -1536 -1664 0
v -1568 -1664 0
v -1568 -1632 0
v -1536 -1632 0
v -1568 -1664 0
v -1600 -1664 0
v -1600 -1632 0
v -1568 -1632 0
v -1600 -1664 0
v -1632 -1664 0
v -1632 -1632 0
v -1600 -1632 0
v -1632 -1664 0
v -1664 -1664 0
v -1664 -1632 0
v -1632 -1632 0
v -1664 -1664 0
v -1696 -1664 0
v -1696 -1632 0
v -1664 -1632 0
v -1184 -1728 0
v -1216 -1728 0
v -1216 -1696 0
v -1184 -1696 0
v -1216 -1728 0
v -1248 -1728 0
v -1248 -1696 0
v -1216 -1696 0
v -1248 -1728 0
v -1280 -1728 0
v -1280 -1696 0
v -1248 -1696 0
v -1280 -1728 0
v -1312 -1728 0
v -1312 -1696 0
v -1280 -1696 0
v -1312 -1728 0
v -1344 -1728 0
v -1344 -1696 0
v -1312 -1696 0
v -1344 -1728 0
v -1376 -1728 0
v -1376 -1696 0
v -1344 -1696 0
v -1376 -1728 0
v -1408 -1728 0
v -1408 -1696 0
v -1376 -1696 0
v -1408 -1728 0
v -1440 -1728 0
v -1440 -1696 0
v -1408 -1696 0
v -1760 -1728 0
v -1792 -1728 0
v -1792 -1696 0
v -1760 -1696 0
v -1792 -1728 0
v -1824 -1728 0
v -1824 -1696 0
v -1792 -1696 0
v -1824 -1728 0
v -1856 -1728 0
v -1856 -1696 0
v -1824 -1696 0
v -1856 -1728 0
v -1888 -1728 0
v -1888 -1696 0
v -1856 -1696 0
v -1888 -1728 0
v -1920 -1728 0
v -1920 -1696 0
v -1888 -1696 0
v -1920 -1728 0
v -1952 -1728 0
v -1952 -1696 0
v -1920 -1696 0
v -1952 -1728 0
v -1984 -1728 0
v -1984 -1696 0
v -1952 -1696 0
v -1984 -1728 0
v -2016 -1728 0
v -2016 -1696 0
v -1984 -1696 0
v -1184 -1760 0
v -1216 -1760 0
v -1216 -1728 0
v -1184 -1728 0
v -1216 -1760 0
v -1248 -1760 0
v -1248 -1728 0
v -1216 -1728 0
v -1248 -1760 0
v -1280 -1760 0
v -1280 -1728 0
v -1248 -1728 0
v -1280 -1760 0
v -1312 -1760 0
v -1312 -1728 0
v -1280 -1728 0
v -1312 -1760 0
v -1344 -1760 0
v -1344 -1728 0
v -1312 -1728 0
v -1344 -1760 0
v -1376 -1760 0
v -1376 -1728 0
v -1344 -1728 0
v -1376 -1760 0
v -1408 -1760 0
v -1408 -1728 0
v -1376 -1728 0
v -1408 -1760 0
v -1440 -1760 0
v -1440 -1728 0
v -1408 -1728 0
v -1760 -1760 0
v -1792 -1760 0
v -1792 -1728 0
v -1760 -1728 0
v -1792 -1760 0
v -1824 -1760 0
v -1824 -1728 0
v -1792 -1728 0
v -1824 -1760 0
v -1856 -1760 0
v -1856 -1728 0
v -1824 -1728 0
v -1856 -1760 0
v -1888 -1760 0
v -1888 -1728 0
v -1856 -1728 0
v -1888 -1760 0
v -1920 -1760 0
v -1920 -1728 0
v -1888 -1728 0
v -1920 -1760 0
v -1952 -1760 0
v -1952 -1728 0
v -1920 -1728 0
v -1952 -1760 0
v -1984 -1760 0
v -1984 -1728 0
v -1952 -1728 0
v -1984 -1760 0
v -2016 -1760 0
v -2016 -1728 0
v -1984 -1728 0

# Texture cooridinates (Count = 9)
vt 0 0.4090909
vt 0.03333334 0.4090909
vt 0.03333334 0.4545454
vt 0 0.4545454
vt 0.06666667 0.4090909
vt 0.06666667 0.4545454
vt 0 0.3636364
vt 0.03333334 0.3636364
vt 0.06666667 0.3636364

# Normal
vn 0 0 -1

# Mesh description
g Platformer1_mesh_0001

# Faces
f 1/1/1 2/2/1 3/3/1 4/4/1
f 5/1/1 6/2/1 7/3/1 8/4/1
f 9/1/1 10/2/1 11/3/1 12/4/1
f 13/1/1 14/2/1 15/3/1 16/4/1
f 17/1/1 18/2/1 19/3/1 20/4/1
f 21/2/1 22/5/1 23/6/1 24/3/1
f 25/7/1 26/8/1 27/2/1 28/1/1
f 29/7/1 30/8/1 31/2/1 32/1/1
f 33/7/1 34/8/1 35/2/1 36/1/1
f 37/7/1 38/8/1 39/2/1 40/1/1
f 41/7/1 42/8/1 43/2/1 44/1/1
f 45/8/1 46/9/1 47/5/1 48/2/1
f 49/1/1 50/2/1 51/3/1 52/4/1
f 53/1/1 54/2/1 55/3/1 56/4/1
f 57/1/1 58/2/1 59/3/1 60/4/1
f 61/1/1 62/2/1 63/3/1 64/4/1
f 65/1/1 66/2/1 67/3/1 68/4/1
f 69/1/1 70/2/1 71/3/1 72/4/1
f 73/2/1 74/5/1 75/6/1 76/3/1
f 77/7/1 78/8/1 79/2/1 80/1/1
f 81/7/1 82/8/1 83/2/1 84/1/1
f 85/7/1 86/8/1 87/2/1 88/1/1
f 89/7/1 90/8/1 91/2/1 92/1/1
f 93/7/1 94/8/1 95/2/1 96/1/1
f 97/7/1 98/8/1 99/2/1 100/1/1
f 101/8/1 102/9/1 103/5/1 104/2/1
f 105/1/1 106/2/1 107/3/1 108/4/1
f 109/2/1 110/5/1 111/6/1 112/3/1
f 113/1/1 114/2/1 115/3/1 116/4/1
f 117/2/1 118/5/1 119/6/1 120/3/1
f 121/1/1 122/2/1 123/3/1 124/4/1
f 125/2/1 126/5/1 127/6/1 128/3/1
f 129/1/1 130/2/1 131/3/1 132/4/1
f 133/2/1 134/5/1 135/6/1 136/3/1
f 137/1/1 138/2/1 139/3/1 140/4/1
f 141/1/1 142/2/1 143/3/1 144/4/1
f 145/1/1 146/2/1 147/3/1 148/4/1
f 149/1/1 150/2/1 151/3/1 152/4/1
f 153/1/1 154/2/1 155/3/1 156/4/1
f 157/1/1 158/2/1 159/3/1 160/4/1
f 161/1/1 162/2/1 163/3/1 164/4/1
f 165/2/1 166/5/1 167/6/1 168/3/1
f 169/7/1 170/8/1 171/2/1 172/1/1
f 173/8/1 174/9/1 175/5/1 176/2/1
f 177/7/1 178/8/1 179/2/1 180/1/1
f 181/8/1 182/9/1 183/5/1 184/2/1
f 185/7/1 186/8/1 187/2/1 188/1/1
f 189/8/1 190/9/1 191/5/1 192/2/1
f 193/7/1 194/8/1 195/2/1 196/1/1
f 197/8/1 198/9/1 199/5/1 200/2/1
f 201/7/1 202/8/1 203/2/1 204/1/1
f 205/7/1 206/8/1 207/2/1 208/1/1
f 209/7/1 210/8/1 211/2/1 212/1/1
f 213/7/1 214/8/1 215/2/1 216/1/1
f 217/7/1 218/8/1 219/2/1 220/1/1
f 221/7/1 222/8/1 223/2/1 224/1/1
f 225/7/1 226/8/1 227/2/1 228/1/1
f 229/8/1 230/9/1 231/5/1 232/2/1

